<?xml version="1.0" encoding="UTF-8" standalone="no"?>
<!-- Created with Inkscape (http://www.inkscape.org/) -->
<svg
   xmlns:svg="http://www.w3.org/2000/svg"
   xmlns="http://www.w3.org/2000/svg"
   version="1.0"
   width="1133.8583"
   height="210.82677"
   id="svg2">
  <defs
     id="defs4" />
  <g
     transform="translate(-701.0088,1011.7105)"
     id="layer1">
    <path
       d="M 875.16632,-837.6289 L 875.16632,-968.69089 C 802.77666,-968.69089 744.09018,-910.01856 744.09018,-837.6289 L 736.44189,-837.6289 L 736.44189,-976.33919 L 875.16632,-976.33919 C 951.75546,-976.33919 1013.8412,-914.21804 1013.8412,-837.6289 L 875.16632,-837.6289"
       id="path4187"
       style="fill:#ef3e33;fill-opacity:1;fill-rule:nonzero;stroke:none" />
    <path
       d="M 1106.6121,-837.6289 L 1123.318,-837.6289 L 1123.318,-949.48516 L 1110.8895,-949.48516 L 1110.8966,-853.16626 L 1043.1596,-949.48516 L 1027.3602,-949.48516 L 1027.3602,-837.6289 L 1039.7887,-837.6289 L 1039.7887,-932.63768 L 1106.6121,-837.6289"
       id="path4191"
       style="fill:#000000;fill-opacity:1;fill-rule:nonzero;stroke:none" />
    <path
       d="M 1542.2531,-931.17884 L 1554.2213,-931.17884 L 1554.2213,-949.48516 L 1542.2531,-949.48516 L 1542.2531,-931.17884 z"
       id="path4193"
       style="fill:#000000;fill-opacity:1;fill-rule:nonzero;stroke:none" />
    <path
       d="M 1542.2531,-837.6289 L 1554.2213,-837.6289 L 1554.2213,-921.08026 L 1542.2531,-921.08026 L 1542.2531,-837.6289 z"
       id="path4195"
       style="fill:#000000;fill-opacity:1;fill-rule:nonzero;stroke:none" />
    <path
       d="M 1633.629,-866.53661 C 1628.7992,-856.19725 1618.3041,-849.03052 1606.1376,-849.03052 C 1589.3893,-849.03052 1575.8136,-862.60624 1575.8136,-879.35458 C 1575.8136,-896.10292 1589.3893,-909.67864 1606.1376,-909.67864 C 1618.3041,-909.67864 1628.7921,-902.51899 1633.6219,-892.17963 L 1643.9542,-897.01647 C 1637.2973,-911.23662 1622.8718,-921.08734 1606.1376,-921.08734 C 1583.0936,-921.08734 1564.4119,-902.3986 1564.4119,-879.35458 C 1564.4119,-856.31056 1583.0936,-837.6289 1606.1376,-837.6289 C 1622.8789,-837.6289 1637.3115,-847.47962 1643.9613,-861.69977 L 1633.629,-866.53661"
       id="path4199"
       style="fill:#000000;fill-opacity:1;fill-rule:nonzero;stroke:none" />
    <path
       d="M 1230.8898,-837.6289 L 1243.0846,-837.6289 L 1243.0846,-949.48516 L 1230.8898,-949.48516 L 1230.8898,-837.6289 z"
       id="path4201"
       style="fill:#000000;fill-opacity:1;fill-rule:nonzero;stroke:none" />
    <path
       d="M 1293.8395,-912.79461 L 1285.221,-921.4131 L 1243.12,-879.30501 L 1286.1699,-836.25504 L 1294.7955,-844.88061 L 1260.3569,-879.31209 L 1293.8395,-912.79461"
       id="path4205"
       style="fill:#000000;fill-opacity:1;fill-rule:nonzero;stroke:none" />
    <path
       d="M 1741.3778,-931.17884 L 1753.346,-931.17884 L 1753.346,-949.48516 L 1741.3778,-949.48516 L 1741.3778,-931.17884 z"
       id="path4207"
       style="fill:#000000;fill-opacity:1;fill-rule:nonzero;stroke:none" />
    <path
       d="M 1741.3778,-837.6289 L 1753.346,-837.6289 L 1753.346,-921.08026 L 1741.3778,-921.08026 L 1741.3778,-837.6289 z"
       id="path4209"
       style="fill:#000000;fill-opacity:1;fill-rule:nonzero;stroke:none" />
    <path
       d="M 1467.7106,-837.6289 L 1455.7425,-837.6289 L 1455.7425,-881.73405 C 1455.7496,-900.96808 1444.1284,-909.72113 1429.8162,-909.72113 C 1415.504,-909.72113 1403.4154,-900.96808 1403.4225,-881.73405 L 1403.4225,-837.6289 L 1391.4543,-837.6289 L 1391.4543,-921.08026 L 1403.4225,-921.08026 L 1403.4225,-910.06105 C 1409.2649,-916.85245 1419.6255,-921.09442 1429.9861,-921.09442 C 1443.576,-921.09442 1455.5017,-913.91353 1462.1444,-903.1351 C 1468.7941,-913.90644 1480.7056,-921.09442 1494.2884,-921.09442 C 1515.1371,-921.09442 1532.02,-906.88135 1532.02,-881.73405 L 1532.02,-837.6289 L 1520.0519,-837.6289 L 1520.0519,-881.73405 C 1520.0519,-900.96808 1508.4236,-909.72113 1494.1114,-909.72113 C 1479.7992,-909.72113 1467.7106,-900.96808 1467.7106,-881.73405 L 1467.7106,-837.6289"
       id="path4213"
       style="fill:#000000;fill-opacity:1;fill-rule:nonzero;stroke:none" />
    <path
       d="M 1718.78,-880.62221 C 1718.78,-899.87749 1706.4435,-909.54408 1691.494,-909.54408 C 1676.5373,-909.54408 1664.3921,-899.87749 1664.3921,-880.62221 L 1664.3921,-837.6289 L 1652.1973,-837.6289 L 1652.1973,-949.48516 L 1664.3921,-949.48516 L 1664.3921,-908.27645 C 1669.9584,-916.5621 1681.5441,-921.08734 1692.7262,-921.08734 C 1713.844,-921.08734 1730.7481,-907.04423 1730.7481,-881.01171 L 1730.7481,-837.6289 L 1718.78,-837.6289 L 1718.78,-880.62221"
       id="path4217"
       style="fill:#000000;fill-opacity:1;fill-rule:nonzero;stroke:none" />
    <path
       d="M 1175.036,-837.6289 C 1151.992,-837.6289 1133.3032,-856.31056 1133.3032,-879.35458 C 1133.3032,-902.3986 1151.992,-921.08734 1175.036,-921.08734 C 1187.1458,-921.08734 1198.0375,-915.92474 1205.6575,-907.68158 L 1205.6575,-921.10858 L 1217.6257,-921.10858 L 1217.6257,-837.6289 L 1205.6575,-837.6289 L 1205.6575,-851.04174 C 1198.0375,-842.7915 1187.1529,-837.6289 1175.036,-837.6289 z M 1175.1493,-848.84639 C 1191.9968,-848.84639 1205.6575,-862.50709 1205.6575,-879.35458 C 1205.6575,-896.20207 1191.9968,-909.86276 1175.1493,-909.86276 C 1158.3018,-909.86276 1144.6411,-896.20207 1144.6411,-879.35458 C 1144.6411,-862.50709 1158.3018,-848.84639 1175.1493,-848.84639"
       id="path4221"
       style="fill:#000000;fill-opacity:1;fill-rule:nonzero;stroke:none" />
    <path
       d="M 1335.3739,-837.6289 C 1312.3299,-837.6289 1293.6412,-856.31056 1293.6412,-879.35458 C 1293.6412,-902.3986 1312.3299,-921.08734 1335.3739,-921.08734 C 1347.4837,-921.08734 1358.3755,-915.92474 1365.9954,-907.68158 L 1365.9954,-921.10858 L 1377.9636,-921.10858 L 1377.9636,-837.6289 L 1365.9954,-837.6289 L 1365.9954,-851.04174 C 1358.3755,-842.7915 1347.4908,-837.6289 1335.3739,-837.6289 z M 1335.4872,-848.84639 C 1352.3347,-848.84639 1365.9954,-862.50709 1365.9954,-879.35458 C 1365.9954,-896.20207 1352.3347,-909.86276 1335.4872,-909.86276 C 1318.6398,-909.86276 1304.9791,-896.20207 1304.9791,-879.35458 C 1304.9791,-862.50709 1318.6398,-848.84639 1335.4872,-848.84639"
       id="path4225"
       style="fill:#000000;fill-opacity:1;fill-rule:nonzero;stroke:none" />
    <path
       d="M 1767.637,-939.32993 C 1767.637,-948.33792 1774.9453,-954.9806 1783.578,-954.9806 C 1792.1257,-954.9806 1799.434,-948.33792 1799.434,-939.32993 C 1799.434,-930.23696 1792.1257,-923.60136 1783.578,-923.60136 C 1774.9453,-923.60136 1767.637,-930.23696 1767.637,-939.32993 z M 1783.578,-926.21453 C 1790.6739,-926.21453 1796.2756,-931.7737 1796.2756,-939.32993 C 1796.2756,-946.75869 1790.6739,-952.36035 1783.578,-952.36035 C 1776.3971,-952.36035 1770.7954,-946.75869 1770.7954,-939.32993 C 1770.7954,-931.7737 1776.3971,-926.21453 1783.578,-926.21453 z M 1780.2566,-930.23696 L 1777.516,-930.23696 L 1777.516,-948.33792 L 1784.4065,-948.33792 C 1788.6839,-948.33792 1790.8014,-946.75869 1790.8014,-943.18949 C 1790.8014,-939.95313 1788.7689,-938.54386 1786.1133,-938.21101 L 1791.2546,-930.23696 L 1788.1882,-930.23696 L 1783.4151,-938.08354 L 1780.2566,-938.08354 L 1780.2566,-930.23696 z M 1783.5355,-940.40636 C 1785.8583,-940.40636 1787.9403,-940.57632 1787.9403,-943.35237 C 1787.9403,-945.59728 1785.9008,-946.00802 1783.9958,-946.00802 L 1780.2566,-946.00802 L 1780.2566,-940.40636 L 1783.5355,-940.40636"
       id="path4229"
       style="fill:#000000;fill-opacity:1;fill-rule:nonzero;stroke:none" />
  </g>
</svg>
